<svg xmlns="http://www.w3.org/2000/svg" viewBox="0 0 64 64">
  <defs><radialGradient id="dm" cx="0.4" cy="0.4"><stop offset="0" stop-color="#a89bc7"/><stop offset="1" stop-color="#5e4f87"/></radialGradient></defs>
  <ellipse cx="32" cy="58" rx="18" ry="3" fill="#1a1108" opacity="0.3"/>
  <path d="M 8 38 Q 6 28 14 24 Q 12 14 24 14 Q 30 6 40 12 Q 52 12 54 22 Q 60 28 56 38 Q 60 50 50 52 Q 40 58 30 54 Q 18 56 12 50 Q 4 46 8 38 Z" fill="url(#dm)" stroke="#1a1108" stroke-width="2"/>
  <ellipse cx="22" cy="36" rx="3" ry="2" fill="#1a1108" opacity="0.6"/>
  <ellipse cx="42" cy="36" rx="3" ry="2" fill="#1a1108" opacity="0.6"/>
  <line x1="20" y1="36" x2="24" y2="36" stroke="#1a1108" stroke-width="2.5" stroke-linecap="round"/>
  <line x1="40" y1="36" x2="44" y2="36" stroke="#1a1108" stroke-width="2.5" stroke-linecap="round"/>
  <ellipse cx="32" cy="44" rx="4" ry="2" fill="#1a1108" opacity="0.5"/>
  <text x="50" y="20" font-family="serif" font-size="10" font-weight="bold" fill="#fff" opacity="0.85">Z</text>
  <text x="56" y="14" font-family="serif" font-size="7" font-weight="bold" fill="#fff" opacity="0.7">z</text>
  <text x="58" y="22" font-family="serif" font-size="5" fill="#fff" opacity="0.5">z</text>
</svg>
